# xmcd
#
# Track frame offsets:
#	150
#	15162
#	36930
#	54385
#	69552
#	85542
#	99737
#	117495
#	131530
#	152167
#	169325
#	186445
#	207212
#	228932
#	244662
#	259152
#	275652
#	304192
#
# Disc length: 4301 seconds
#
# Revision: 2
# Processed by: cddbd v1.5.1PL2 Copyright (c) Steve Scherf et al.
# Submitted via: audiograbber 1.82.02
#
DISCID=f710cb12
DTITLE=Marley's Ghost - Live at the Freight
DYEAR=1900
DGENRE=
TTITLE0=Battle of the Somme - Shenandoah
TTITLE1=Stir It Up
TTITLE2=Late in the Day
TTITLE3=Sugar Trade
TTITLE4=Leopard Skin Pillbox Hat
TTITLE5=Old Plank Road
TTITLE6=Going to the West
TTITLE7=Story of Job
TTITLE8=One Love
TTITLE9=Dinah - Jordan Am a Hard Road
TTITLE10=Shackles and Chains
TTITLE11=She'd Rather Be Homeless
TTITLE12=And It Stoned Me
TTITLE13=Mexico
TTITLE14=The End Is Not in Sight
TTITLE15=One More Shot
TTITLE16=Iko Iko
TTITLE17=Fiddler's Green
EXTD=
EXTT0=
EXTT1=
EXTT2=
EXTT3=
EXTT4=
EXTT5=
EXTT6=
EXTT7=
EXTT8=
EXTT9=
EXTT10=
EXTT11=
EXTT12=
EXTT13=
EXTT14=
EXTT15=
EXTT16=
EXTT17=
PLAYORDER=
